<svg xmlns="http://www.w3.org/2000/svg" viewBox="0 0 700 480"><rect width="700" height="480" fill="#f3eee3"/><circle cx="350" cy="220" r="145" fill="#123f35"/><path d="M285 245c-8-68 16-122 68-142 53 20 77 74 69 142-8 67-42 96-69 96s-61-29-68-96z" fill="#c7a86b"/><path d="M300 190c15-40 37-59 53-64 24 8 42 29 54 64" fill="none" stroke="#17231f" stroke-width="12" stroke-linecap="round"/><circle cx="325" cy="232" r="6" fill="#17231f"/><circle cx="375" cy="232" r="6" fill="#17231f"/><path d="M330 270c13 12 27 12 40 0" fill="none" stroke="#8d3150" stroke-width="7" stroke-linecap="round"/><path d="M220 125l-22-34M480 125l22-34M195 250h-42M505 250h42" stroke="#8d3150" stroke-width="6" stroke-linecap="round"/><text x="350" y="425" text-anchor="middle" fill="#123f35" font-family="Arial,sans-serif" font-size="15" letter-spacing="5">SKIN · CARE · GLOW</text></svg>